<svg aria-hidden="true" style="width:0;height:0;position:absolute;overflow:hidden" xmlns="http://www.w3.org/2000/svg"><defs><symbol id="logo" viewBox="0 0 24 24" fill="none" xmlns="http://www.w3.org/2000/svg"><path d="M19.82 2H4.18A2.18 2.18 0 0 0 2 4.18v15.64A2.18 2.18 0 0 0 4.18 22h15.64A2.18 2.18 0 0 0 22 19.82V4.18A2.18 2.18 0 0 0 19.82 2ZM7 2v20M17 2v20M2 12h20M2 7h5M2 17h5M17 17h5M17 7h5" stroke="#818181" stroke-width="2" stroke-linecap="round" stroke-linejoin="round"/></symbol><symbol id="loupe" viewBox="0 0 12 12" fill="none" xmlns="http://www.w3.org/2000/svg"><path d="M5.5 9.5a4 4 0 1 0 0-8 4 4 0 0 0 0 8ZM10.5 10.5 8.325 8.325" stroke="#fff" stroke-linecap="round" stroke-linejoin="round"/></symbol><symbol id="icon-footerheart" viewBox="0 0 32 32"><path fill="#ff6b08" style="fill:var(--color1,#ff6b08)" d="m16 30.144-2.24-2.218C5.44 20.639 0 15.728 0 9.708 0 4.797 3.84.995 8.8.995c2.72 0 5.44 1.267 7.2 3.327C17.76 2.263 20.48.995 23.2.995c4.96 0 8.8 3.802 8.8 8.713 0 6.02-5.44 10.931-13.76 18.218L16 30.144z"/></symbol><symbol id="icon-cancel-circle" viewBox="0 0 32 32"><path d="M16 0C7.163 0 0 7.163 0 16s7.163 16 16 16 16-7.163 16-16S24.837 0 16 0zm0 29C8.82 29 3 23.18 3 16S8.82 3 16 3s13 5.82 13 13-5.82 13-13 13z"/><path d="m21 8-5 5-5-5-3 3 5 5-5 5 3 3 5-5 5 5 3-3-5-5 5-5z"/></symbol><symbol id="icon-circle-right" viewBox="0 0 32 32"><path d="M16 0C7.163 0 0 7.163 0 16s7.163 16 16 16 16-7.163 16-16S24.837 0 16 0zm0 29C8.82 29 3 23.18 3 16S8.82 3 16 3s13 5.82 13 13-5.82 13-13 13z"/><path d="m11.086 22.086 2.829 2.829 8.914-8.914-8.914-8.914-2.828 2.828 6.086 6.086z"/></symbol><symbol id="icon-circle-left" viewBox="0 0 32 32"><path d="M16 32c8.837 0 16-7.163 16-16S24.837 0 16 0 0 7.163 0 16s7.163 16 16 16zm0-29c7.18 0 13 5.82 13 13s-5.82 13-13 13S3 23.18 3 16 8.82 3 16 3z"/><path d="m20.914 9.914-2.829-2.829-8.914 8.914 8.914 8.914 2.828-2.828-6.086-6.086z"/></symbol><symbol id="icon-enter" viewBox="0 0 38 38"><path d="M12 16H2v-4h10V8l6 6-6 6zM32 0v26l-12 6v-6H8v-8h2v6h10V6l8-4H10v8H8V0z"/></symbol><symbol id="icon-exit" viewBox="0 0 38 38"><path d="M24 20v-4H14v-4h10V8l6 6zm-2-2v8H12v6L0 26V0h22v10h-2V2H4l8 4v18h8v-6z"/></symbol></defs></svg>